<svg width="16" height="16" viewBox="0 0 16 16" fill="none" xmlns="http://www.w3.org/2000/svg">
<path d="M3.16667 12.5625C3.875 12.0625 4.625 11.6633 5.41667 11.365C6.20833 11.0661 7.06944 10.9167 8 10.9167C8.93056 10.9167 9.79167 11.0661 10.5833 11.365C11.375 11.6633 12.125 12.0625 12.8333 12.5625C13.3889 11.9931 13.8333 11.3228 14.1667 10.5517C14.5 9.78111 14.6667 8.93056 14.6667 8C14.6667 6.15278 14.0175 4.57972 12.7192 3.28083C11.4203 1.9825 9.84722 1.33333 8 1.33333C6.15278 1.33333 4.58 1.9825 3.28167 3.28083C1.98278 4.57972 1.33333 6.15278 1.33333 8C1.33333 8.93056 1.5 9.78111 1.83333 10.5517C2.16667 11.3228 2.61111 11.9931 3.16667 12.5625ZM8 8.41667C7.29167 8.41667 6.69806 8.17694 6.21917 7.6975C5.73972 7.21861 5.5 6.625 5.5 5.91667C5.5 5.20833 5.73972 4.61444 6.21917 4.135C6.69806 3.65611 7.29167 3.41667 8 3.41667C8.70833 3.41667 9.30194 3.65611 9.78083 4.135C10.2603 4.61444 10.5 5.20833 10.5 5.91667C10.5 6.625 10.2603 7.21861 9.78083 7.6975C9.30194 8.17694 8.70833 8.41667 8 8.41667ZM8 15.5C6.95833 15.5 5.97917 15.3056 5.0625 14.9167C4.14583 14.5278 3.35083 13.9967 2.6775 13.3233C2.00361 12.6494 1.47222 11.8542 1.08333 10.9375C0.694444 10.0208 0.5 9.04167 0.5 8C0.5 6.95833 0.694444 5.97917 1.08333 5.0625C1.47222 4.14583 2.00361 3.35056 2.6775 2.67667C3.35083 2.00333 4.14583 1.47222 5.0625 1.08333C5.97917 0.694444 6.95833 0.5 8 0.5C9.04167 0.5 10.0208 0.694444 10.9375 1.08333C11.8542 1.47222 12.6494 2.00333 13.3233 2.67667C13.9967 3.35056 14.5278 4.14583 14.9167 5.0625C15.3056 5.97917 15.5 6.95833 15.5 8C15.5 9.04167 15.3056 10.0208 14.9167 10.9375C14.5278 11.8542 13.9967 12.6494 13.3233 13.3233C12.6494 13.9967 11.8542 14.5278 10.9375 14.9167C10.0208 15.3056 9.04167 15.5 8 15.5ZM8 14.6667C8.76389 14.6667 9.5175 14.5311 10.2608 14.26C11.0036 13.9894 11.6458 13.625 12.1875 13.1667C11.6458 12.7222 11.0208 12.375 10.3125 12.125C9.60417 11.875 8.83333 11.75 8 11.75C7.16667 11.75 6.3925 11.875 5.6775 12.125C4.96194 12.375 4.34028 12.7222 3.8125 13.1667C4.35417 13.625 4.99639 13.9894 5.73917 14.26C6.4825 14.5311 7.23611 14.6667 8 14.6667ZM8 7.58333C8.47222 7.58333 8.86806 7.42361 9.1875 7.10417C9.50694 6.78472 9.66667 6.38889 9.66667 5.91667C9.66667 5.44444 9.50694 5.04861 9.1875 4.72917C8.86806 4.40972 8.47222 4.25 8 4.25C7.52778 4.25 7.13194 4.40972 6.8125 4.72917C6.49306 5.04861 6.33333 5.44444 6.33333 5.91667C6.33333 6.38889 6.49306 6.78472 6.8125 7.10417C7.13194 7.42361 7.52778 7.58333 8 7.58333Z" fill="#131316"/>
</svg>
