<svg width="20" height="20" viewBox="0 0 20 20" fill="none" xmlns="http://www.w3.org/2000/svg">
<mask id="mask0_3157_6687" style="mask-type:alpha" maskUnits="userSpaceOnUse" x="0" y="0" width="20" height="20">
<rect width="20" height="20" fill="#C4C4C4"/>
</mask>
<g mask="url(#mask0_3157_6687)">
<path d="M10.0001 8.57367C9.82271 8.57367 9.67421 8.63349 9.55456 8.75315C9.43491 8.87281 9.37508 9.02132 9.37508 9.19867V12.282L8.27248 11.1794C8.1571 11.0641 8.01207 11.005 7.83739 11.0024C7.66273 10.9997 7.51503 11.0587 7.39431 11.1794C7.27357 11.3002 7.21321 11.4465 7.21321 11.6185C7.21321 11.7905 7.27357 11.9369 7.39431 12.0576L9.47283 14.1361C9.62347 14.2868 9.79921 14.3621 10.0001 14.3621C10.2009 14.3621 10.3767 14.2868 10.5273 14.1361L12.6058 12.0576C12.7212 11.9422 12.7802 11.7972 12.7829 11.6225C12.7856 11.4479 12.7265 11.3002 12.6058 11.1794C12.4851 11.0587 12.3387 10.9984 12.1667 10.9984C11.9947 10.9984 11.8484 11.0587 11.7276 11.1794L10.625 12.282V9.19867C10.625 9.02132 10.5652 8.87281 10.4456 8.75315C10.3259 8.63349 10.1774 8.57367 10.0001 8.57367ZM4.16673 6.58648V15.5768C4.16673 15.6516 4.19077 15.7131 4.23885 15.7611C4.28694 15.8092 4.34837 15.8333 4.42316 15.8333H15.577C15.6517 15.8333 15.7132 15.8092 15.7613 15.7611C15.8094 15.7131 15.8334 15.6516 15.8334 15.5768V6.58648H4.16673ZM4.48727 17.0833C4.07167 17.0833 3.70602 16.9254 3.39031 16.6097C3.0746 16.294 2.91675 15.9283 2.91675 15.5127V5.83811C2.91675 5.65969 2.94533 5.48955 3.0025 5.32769C3.05965 5.16584 3.14539 5.01654 3.25971 4.87979L4.42958 3.46471C4.56633 3.28629 4.73727 3.15034 4.94239 3.05686C5.14752 2.96337 5.3644 2.91663 5.59304 2.91663H14.3911C14.6197 2.91663 14.8379 2.96337 15.0457 3.05686C15.2535 3.15034 15.4258 3.28629 15.5625 3.46471L16.7404 4.89581C16.8547 5.03256 16.9405 5.1832 16.9976 5.34773C17.0548 5.51226 17.0834 5.68373 17.0834 5.86215V15.5127C17.0834 15.9283 16.9255 16.294 16.6098 16.6097C16.2941 16.9254 15.9285 17.0833 15.5129 17.0833H4.48727ZM4.49204 5.3365H15.5001L14.5914 4.25475C14.5647 4.22804 14.534 4.20667 14.4992 4.19065C14.4645 4.17462 14.4284 4.16661 14.3911 4.16661H5.60106C5.56366 4.16661 5.5276 4.17462 5.49287 4.19065C5.45815 4.20667 5.42743 4.22804 5.40071 4.25475L4.49204 5.3365Z" fill="#131316"/>
</g>
</svg>
