<svg width="12" height="12" viewBox="0 0 12 12" fill="none" xmlns="http://www.w3.org/2000/svg">
<path d="M9.84519 6.7112H1.3125C1.15289 6.7112 1.01924 6.65736 0.91155 6.54967C0.80385 6.44199 0.75 6.30834 0.75 6.14872C0.75 5.98911 0.80385 5.85546 0.91155 5.74777C1.01924 5.64009 1.15289 5.58624 1.3125 5.58624H9.84519L5.96826 1.7093C5.85672 1.59777 5.80168 1.46724 5.80313 1.31773C5.80456 1.1682 5.86346 1.03527 5.97981 0.918935C6.09614 0.810285 6.22787 0.754035 6.37498 0.750185C6.52209 0.746335 6.65382 0.802585 6.77016 0.918935L11.5254 5.67422C11.5956 5.7444 11.6451 5.81844 11.674 5.89633C11.7028 5.9742 11.7173 6.05834 11.7173 6.14872C11.7173 6.23911 11.7028 6.32324 11.674 6.40112C11.6451 6.479 11.5956 6.55304 11.5254 6.62323L6.77016 11.3785C6.66632 11.4824 6.53772 11.5355 6.38436 11.5379C6.23099 11.5403 6.09614 11.4872 5.97981 11.3785C5.86346 11.2622 5.80528 11.1285 5.80528 10.9776C5.80528 10.8266 5.86346 10.6929 5.97981 10.5766L9.84519 6.7112Z" fill="#131316"/>
</svg>
