<svg width="17" height="17" viewBox="0 0 17 17" fill="none" xmlns="http://www.w3.org/2000/svg">
<path d="M14.2822 4.54378L13.6833 3.25157L12.3911 2.65276L13.6833 2.05393L14.2822 0.761719L14.881 2.05393L16.1732 2.65276L14.881 3.25157L14.2822 4.54378ZM5.11547 4.54378L4.51665 3.25157L3.22445 2.65276L4.51665 2.05393L5.11547 0.761719L5.7143 2.05393L7.00651 2.65276L5.7143 3.25157L5.11547 4.54378ZM14.2822 13.7104L13.6833 12.4182L12.3911 11.8194L13.6833 11.2206L14.2822 9.92839L14.881 11.2206L16.1732 11.8194L14.881 12.4182L14.2822 13.7104ZM2.3142 16.0566L0.8783 14.6207C0.754355 14.4931 0.692383 14.3388 0.692383 14.158C0.692383 13.9771 0.754355 13.8248 0.8783 13.7008L9.30457 5.30659C9.43222 5.18266 9.58647 5.1207 9.7673 5.1207C9.94813 5.1207 10.1005 5.18266 10.2244 5.30659L11.6604 6.74249C11.7843 6.87014 11.8463 7.02439 11.8463 7.20522C11.8463 7.38605 11.7843 7.53844 11.6604 7.66237L3.23407 16.0566C3.10642 16.1805 2.95217 16.2425 2.77134 16.2425C2.59051 16.2425 2.43813 16.1805 2.3142 16.0566ZM9.74849 8.35307L10.9152 7.18641L9.74849 6.01974L8.58182 7.18641L9.74849 8.35307Z" fill="white"/>
</svg>
