<svg width="17" height="17" viewBox="0 0 17 17" fill="none" xmlns="http://www.w3.org/2000/svg">
<path d="M14.9234 4.15322L14.2658 2.7342L12.8468 2.07662L14.2658 1.41902L14.9234 0L15.581 1.41902L17 2.07662L15.581 2.7342L14.9234 4.15322ZM4.85714 4.15322L4.19957 2.7342L2.78055 2.07662L4.19957 1.41902L4.85714 0L5.51474 1.41902L6.93376 2.07662L5.51474 2.7342L4.85714 4.15322ZM14.9234 14.2195L14.2658 12.8004L12.8468 12.1429L14.2658 11.4853L14.9234 10.0662L15.581 11.4853L17 12.1429L15.581 12.8004L14.9234 14.2195ZM1.78097 16.7959L0.204162 15.219C0.0680541 15.0789 0 14.9095 0 14.7109C0 14.5123 0.0680541 14.345 0.204162 14.2089L9.45735 4.99089C9.59753 4.8548 9.76691 4.78675 9.96548 4.78675C10.1641 4.78675 10.3314 4.8548 10.4675 4.99089L12.0443 6.56769C12.1804 6.70787 12.2485 6.87726 12.2485 7.07583C12.2485 7.27441 12.1804 7.44175 12.0443 7.57784L2.79112 16.7959C2.65094 16.932 2.48156 17 2.28298 17C2.0844 17 1.91706 16.932 1.78097 16.7959ZM9.94483 8.33633L11.226 7.05518L9.94483 5.77402L8.66367 7.05518L9.94483 8.33633Z" fill="#131316"/>
</svg>
