<svg width="16" height="16" viewBox="0 0 16 16" fill="none" xmlns="http://www.w3.org/2000/svg">
<path d="M3.4165 12.5564C2.62484 11.8341 2.01025 11.0064 1.57275 10.0732C1.13525 9.13996 0.916504 8.16875 0.916504 7.15955C0.916504 5.19358 1.60516 3.5225 2.98248 2.14632C4.35979 0.770129 6.03223 0.0820312 7.99982 0.0820312C9.6184 0.0820312 11.0658 0.565741 12.3419 1.53316C13.6181 2.50057 14.4469 3.75564 14.8283 5.29837L15.802 9.14385C15.8644 9.38146 15.8203 9.59721 15.6697 9.79112C15.519 9.98503 15.3182 10.082 15.0671 10.082H13.4165V12.7422C13.4165 13.1565 13.269 13.5111 12.9739 13.8061C12.6789 14.1012 12.3243 14.2487 11.91 14.2487H10.0831V15.2903C10.0831 15.4674 10.0232 15.6158 9.90336 15.7356C9.78351 15.8554 9.63501 15.9153 9.45786 15.9153C9.28069 15.9153 9.13228 15.8554 9.01263 15.7356C8.89298 15.6158 8.83315 15.4674 8.83315 15.2903V13.7558C8.83315 13.5385 8.90533 13.3579 9.04969 13.2142C9.19405 13.0705 9.37294 12.9987 9.58636 12.9987H11.91C11.9848 12.9987 12.0463 12.9746 12.0944 12.9266C12.1424 12.8785 12.1665 12.817 12.1665 12.7422V9.58522C12.1665 9.3718 12.2387 9.19292 12.383 9.04855C12.5274 8.90419 12.7063 8.83201 12.9197 8.83201H14.4165L13.6248 5.60284C13.3054 4.33361 12.6221 3.3045 11.5751 2.51551C10.5281 1.72651 9.33636 1.33201 7.99982 1.33201C6.38871 1.33201 5.01371 1.89529 3.87482 3.02184C2.73593 4.1484 2.16648 5.51835 2.16648 7.1317C2.16648 7.96366 2.33662 8.75402 2.6769 9.50278C3.01718 10.2515 3.49982 10.9171 4.12482 11.4995L4.66648 11.9987V15.2903C4.66648 15.4674 4.60656 15.6158 4.48671 15.7356C4.36688 15.8554 4.21838 15.9153 4.04121 15.9153C3.86406 15.9153 3.71566 15.8554 3.596 15.7356C3.47634 15.6158 3.4165 15.4674 3.4165 15.2903V12.5564ZM7.9194 11.2519C8.12365 11.2519 8.29495 11.1828 8.4333 11.0446C8.57166 10.9065 8.64084 10.7353 8.64084 10.531C8.64084 10.3268 8.57175 10.1555 8.43359 10.0171C8.29542 9.87877 8.12421 9.8096 7.91996 9.8096C7.71571 9.8096 7.54441 9.87868 7.40607 10.0168C7.26772 10.155 7.19855 10.3262 7.19855 10.5304C7.19855 10.7347 7.26763 10.906 7.4058 11.0443C7.54395 11.1827 7.71515 11.2519 7.9194 11.2519ZM7.9814 4.31439C8.32487 4.31439 8.60932 4.40965 8.83476 4.60018C9.06019 4.79069 9.1729 5.03678 9.1729 5.33845C9.1729 5.55877 9.11387 5.76876 8.99582 5.96843C8.87776 6.16809 8.63978 6.45382 8.28188 6.82562C8.03402 7.08737 7.84839 7.32989 7.72498 7.55318C7.60158 7.77647 7.51905 8.01899 7.47738 8.28074C7.45495 8.41002 7.49058 8.52514 7.58428 8.6261C7.67796 8.72705 7.79644 8.77753 7.93973 8.77753C8.06098 8.77753 8.17289 8.73614 8.27544 8.65335C8.37801 8.57054 8.44746 8.45756 8.48378 8.31441C8.52544 8.14239 8.59675 7.97119 8.69771 7.80078C8.79869 7.63037 8.94906 7.43565 9.14884 7.21664C9.56657 6.75723 9.84489 6.40387 9.98377 6.15655C10.1227 5.90922 10.1921 5.63652 10.1921 5.33845C10.1921 4.78182 9.98244 4.31414 9.56311 3.93541C9.14378 3.55667 8.6168 3.3673 7.98219 3.3673C7.56464 3.3673 7.16991 3.46693 6.79803 3.66618C6.42615 3.86543 6.1275 4.14187 5.90207 4.49549C5.83476 4.60767 5.82996 4.72412 5.88765 4.84485C5.94533 4.96557 6.03453 5.05264 6.15525 5.10605C6.27599 5.15947 6.39458 5.16855 6.51102 5.1333C6.62747 5.09805 6.73057 5.02006 6.82032 4.89932C6.96989 4.7113 7.14615 4.5668 7.34911 4.46584C7.55207 4.36487 7.76283 4.31439 7.9814 4.31439Z" fill="white"/>
</svg>
