<svg width="14" height="16" viewBox="0 0 14 16" fill="none" xmlns="http://www.w3.org/2000/svg">
<path d="M7.00001 9.79167C6.83334 9.79167 6.68418 9.72917 6.55251 9.60417C6.42029 9.47917 6.35418 9.32639 6.35418 9.14583C6.35418 8.97917 6.42029 8.83333 6.55251 8.70833C6.68418 8.58333 6.83334 8.52083 7.00001 8.52083C7.16668 8.52083 7.31612 8.58333 7.44834 8.70833C7.58001 8.83333 7.64584 8.97917 7.64584 9.14583C7.64584 9.32639 7.58001 9.47917 7.44834 9.60417C7.31612 9.72917 7.16668 9.79167 7.00001 9.79167ZM3.66668 9.79167C3.50001 9.79167 3.35084 9.72917 3.21918 9.60417C3.08695 9.47917 3.02084 9.32639 3.02084 9.14583C3.02084 8.97917 3.08695 8.83333 3.21918 8.70833C3.35084 8.58333 3.50001 8.52083 3.66668 8.52083C3.83334 8.52083 3.98279 8.58333 4.11501 8.70833C4.24668 8.83333 4.31251 8.97917 4.31251 9.14583C4.31251 9.32639 4.24668 9.47917 4.11501 9.60417C3.98279 9.72917 3.83334 9.79167 3.66668 9.79167ZM10.3333 9.79167C10.1667 9.79167 10.0175 9.72917 9.88584 9.60417C9.75362 9.47917 9.68751 9.32639 9.68751 9.14583C9.68751 8.97917 9.75362 8.83333 9.88584 8.70833C10.0175 8.58333 10.1667 8.52083 10.3333 8.52083C10.5 8.52083 10.6495 8.58333 10.7817 8.70833C10.9133 8.83333 10.9792 8.97917 10.9792 9.14583C10.9792 9.32639 10.9133 9.47917 10.7817 9.60417C10.6495 9.72917 10.5 9.79167 10.3333 9.79167ZM7.00001 13C6.83334 13 6.68418 12.9375 6.55251 12.8125C6.42029 12.6875 6.35418 12.5347 6.35418 12.3542C6.35418 12.1875 6.42029 12.0383 6.55251 11.9067C6.68418 11.7744 6.83334 11.7083 7.00001 11.7083C7.16668 11.7083 7.31612 11.7744 7.44834 11.9067C7.58001 12.0383 7.64584 12.1875 7.64584 12.3542C7.64584 12.5347 7.58001 12.6875 7.44834 12.8125C7.31612 12.9375 7.16668 13 7.00001 13ZM3.66668 13C3.50001 13 3.35084 12.9375 3.21918 12.8125C3.08695 12.6875 3.02084 12.5347 3.02084 12.3542C3.02084 12.1875 3.08695 12.0383 3.21918 11.9067C3.35084 11.7744 3.50001 11.7083 3.66668 11.7083C3.83334 11.7083 3.98279 11.7744 4.11501 11.9067C4.24668 12.0383 4.31251 12.1875 4.31251 12.3542C4.31251 12.5347 4.24668 12.6875 4.11501 12.8125C3.98279 12.9375 3.83334 13 3.66668 13ZM10.3333 13C10.1667 13 10.0175 12.9375 9.88584 12.8125C9.75362 12.6875 9.68751 12.5347 9.68751 12.3542C9.68751 12.1875 9.75362 12.0383 9.88584 11.9067C10.0175 11.7744 10.1667 11.7083 10.3333 11.7083C10.5 11.7083 10.6495 11.7744 10.7817 11.9067C10.9133 12.0383 10.9792 12.1875 10.9792 12.3542C10.9792 12.5347 10.9133 12.6875 10.7817 12.8125C10.6495 12.9375 10.5 13 10.3333 13ZM1.68751 15.5C1.29862 15.5 0.975843 15.3717 0.719177 15.115C0.461954 14.8578 0.333344 14.5347 0.333344 14.1458V3.52083C0.333344 3.13194 0.461954 2.80917 0.719177 2.5525C0.975843 2.29528 1.29862 2.16667 1.68751 2.16667H3.14584V0.3125H4.04168V2.16667H10.0208V0.3125H10.8542V2.16667H12.3125C12.7014 2.16667 13.0245 2.29528 13.2817 2.5525C13.5383 2.80917 13.6667 3.13194 13.6667 3.52083V14.1458C13.6667 14.5347 13.5383 14.8578 13.2817 15.115C13.0245 15.3717 12.7014 15.5 12.3125 15.5H1.68751ZM1.68751 14.6667H12.3125C12.4514 14.6667 12.5728 14.6144 12.6767 14.51C12.7811 14.4061 12.8333 14.2847 12.8333 14.1458V6.85417H1.16668V14.1458C1.16668 14.2847 1.2189 14.4061 1.32334 14.51C1.42723 14.6144 1.54862 14.6667 1.68751 14.6667Z" fill="#131316"/>
</svg>
