<svg width="21" height="21" viewBox="0 0 21 21" fill="none" xmlns="http://www.w3.org/2000/svg">
<path fill-rule="evenodd" clip-rule="evenodd" d="M10.5 0.145508C16.0228 0.145508 20.5 4.62266 20.5 10.1455C20.5 15.6684 16.0228 20.1455 10.5 20.1455C4.97715 20.1455 0.5 15.6684 0.5 10.1455C0.5 4.62266 4.97715 0.145508 10.5 0.145508ZM10.5 2.14551C6.08172 2.14551 2.5 5.72723 2.5 10.1455C2.5 14.5638 6.08172 18.1455 10.5 18.1455C14.9183 18.1455 18.5 14.5638 18.5 10.1455C18.5 5.72723 14.9183 2.14551 10.5 2.14551ZM14.194 6.45153C14.602 6.85955 14.602 7.52109 14.194 7.92912L11.9783 10.1448L14.194 12.3619C14.602 12.7699 14.602 13.4315 14.194 13.8395C13.786 14.2475 13.1244 14.2475 12.7164 13.8395L10.5007 11.6224L8.28361 13.8395C7.87559 14.2475 7.21405 14.2475 6.80602 13.8395C6.39799 13.4315 6.39799 12.7699 6.80602 12.3619L9.02315 10.1448L6.80602 7.92912C6.39799 7.52109 6.39799 6.85955 6.80602 6.45153C7.21405 6.0435 7.87559 6.0435 8.28361 6.45153L10.5007 8.66718L12.7164 6.45153C13.1244 6.0435 13.786 6.0435 14.194 6.45153Z" fill="#7E84A3"/>
</svg>
