<svg width="11" height="11" viewBox="0 0 11 11" fill="none" xmlns="http://www.w3.org/2000/svg">
<path d="M5.25 6.12207L1.05189 10.3202C0.937316 10.4347 0.793299 10.4934 0.619836 10.496C0.446387 10.4987 0.299722 10.4401 0.179842 10.3202C0.0599471 10.2003 0 10.0549 0 9.88414C0 9.71334 0.0599471 9.56799 0.179842 9.44811L4.37793 5.25L0.179842 1.05189C0.065257 0.937315 0.00664074 0.793299 0.00399266 0.619836C0.00133079 0.446387 0.0599471 0.299722 0.179842 0.179842C0.299722 0.0599471 0.445063 0 0.615864 0C0.786665 0 0.932006 0.0599471 1.05189 0.179842L5.25 4.37793L9.44811 0.179842C9.56268 0.065257 9.7067 0.00664074 9.88016 0.00399266C10.0536 0.00133079 10.2003 0.0599471 10.3202 0.179842C10.4401 0.299722 10.5 0.445063 10.5 0.615864C10.5 0.786665 10.4401 0.932006 10.3202 1.05189L6.12207 5.25L10.3202 9.44811C10.4347 9.56268 10.4934 9.7067 10.496 9.88016C10.4987 10.0536 10.4401 10.2003 10.3202 10.3202C10.2003 10.4401 10.0549 10.5 9.88414 10.5C9.71334 10.5 9.56799 10.4401 9.44811 10.3202L5.25 6.12207Z" fill="#131316"/>
</svg>
