<svg width="18" height="18" viewBox="0 0 18 18" fill="none" xmlns="http://www.w3.org/2000/svg">
<mask id="mask0_837_8341" style="mask-type:alpha" maskUnits="userSpaceOnUse" x="0" y="0" width="18" height="18">
<rect width="18" height="18" fill="#D9D9D9"/>
</mask>
<g mask="url(#mask0_837_8341)">
<path d="M5.24998 10.3125H9.74998C9.90959 10.3125 10.0432 10.2586 10.1509 10.1509C10.2586 10.0432 10.3125 9.90959 10.3125 9.74998C10.3125 9.59037 10.2586 9.45672 10.1509 9.34903C10.0432 9.24134 9.90959 9.1875 9.74998 9.1875H5.24998C5.09037 9.1875 4.95672 9.24134 4.84903 9.34903C4.74134 9.45672 4.6875 9.59037 4.6875 9.74998C4.6875 9.90959 4.74134 10.0432 4.84903 10.1509C4.95672 10.2586 5.09037 10.3125 5.24998 10.3125ZM5.24998 8.06246H12.75C12.9096 8.06246 13.0432 8.00862 13.1509 7.90093C13.2586 7.79324 13.3125 7.65959 13.3125 7.49998C13.3125 7.34037 13.2586 7.20672 13.1509 7.09903C13.0432 6.99134 12.9096 6.9375 12.75 6.9375H5.24998C5.09037 6.9375 4.95672 6.99134 4.84903 7.09903C4.74134 7.20672 4.6875 7.34037 4.6875 7.49998C4.6875 7.65959 4.74134 7.79324 4.84903 7.90093C4.95672 8.00862 5.09037 8.06246 5.24998 8.06246ZM5.24998 5.81246H12.75C12.9096 5.81246 13.0432 5.75862 13.1509 5.65093C13.2586 5.54324 13.3125 5.40959 13.3125 5.24998C13.3125 5.09037 13.2586 4.95672 13.1509 4.84903C13.0432 4.74134 12.9096 4.6875 12.75 4.6875H5.24998C5.09037 4.6875 4.95672 4.74134 4.84903 4.84903C4.74134 4.95672 4.6875 5.09037 4.6875 5.24998C4.6875 5.40959 4.74134 5.54324 4.84903 5.65093C4.95672 5.75862 5.09037 5.81246 5.24998 5.81246ZM4.52884 13.125L3.02741 14.6264C2.81395 14.8398 2.56852 14.8882 2.29112 14.7713C2.01371 14.6545 1.875 14.4442 1.875 14.1403V3.23078C1.875 2.85193 2.00625 2.53125 2.26875 2.26875C2.53125 2.00625 2.85193 1.875 3.23078 1.875H14.7692C15.148 1.875 15.4687 2.00625 15.7312 2.26875C15.9937 2.53125 16.125 2.85193 16.125 3.23078V11.7692C16.125 12.148 15.9937 12.4687 15.7312 12.7312C15.4687 12.9937 15.148 13.125 14.7692 13.125H4.52884ZM4.05 12H14.7692C14.8269 12 14.8798 11.9759 14.9279 11.9279C14.9759 11.8798 15 11.8269 15 11.7692V3.23078C15 3.17308 14.9759 3.12018 14.9279 3.07209C14.8798 3.02402 14.8269 2.99998 14.7692 2.99998H3.23078C3.17308 2.99998 3.12018 3.02402 3.07209 3.07209C3.02402 3.12018 2.99998 3.17308 2.99998 3.23078V13.0385L4.05 12Z" fill="#131316"/>
</g>
</svg>
