<svg width="16" height="16" viewBox="0 0 16 16" fill="none" xmlns="http://www.w3.org/2000/svg">
<path fill-rule="evenodd" clip-rule="evenodd" d="M7.99998 1.33331C11.6819 1.33331 14.6666 4.31808 14.6666 7.99998C14.6666 11.6819 11.6819 14.6666 7.99998 14.6666C4.31808 14.6666 1.33331 11.6819 1.33331 7.99998C1.33331 4.31808 4.31808 1.33331 7.99998 1.33331ZM7.99996 2.66663C5.05444 2.66663 2.66663 5.05444 2.66663 7.99996C2.66663 10.9455 5.05444 13.3333 7.99996 13.3333C10.9455 13.3333 13.3333 10.9455 13.3333 7.99996C13.3333 5.05444 10.9455 2.66663 7.99996 2.66663ZM7.99997 3.99998C8.34187 3.99998 8.62365 4.25734 8.66216 4.5889L8.66664 4.66665V7.72332L10.4714 9.52858C10.7117 9.7689 10.7302 10.1471 10.5268 10.4086L10.4714 10.4714C10.2311 10.7117 9.8529 10.7302 9.59137 10.5268L9.52857 10.4714L7.52857 8.47139C7.42438 8.3672 7.35824 8.23208 7.33909 8.08761L7.33331 7.99998V4.66665C7.33331 4.29846 7.63178 3.99998 7.99997 3.99998Z" fill="#6C6D75"/>
</svg>
