<svg width="12" height="13" viewBox="0 0 12 13" fill="none" xmlns="http://www.w3.org/2000/svg">
<path d="M5.99984 9.6875L3.0415 6.75L3.64567 6.14583L5.58317 8.08333V0.875H6.4165V8.08333L8.354 6.14583L8.95817 6.75L5.99984 9.6875ZM1.52067 12.8333C1.13178 12.8333 0.809004 12.705 0.552337 12.4483C0.295115 12.1911 0.166504 11.8681 0.166504 11.4792V9.5H0.999837V11.4792C0.999837 11.6181 1.05206 11.7394 1.1565 11.8433C1.26039 11.9478 1.38178 12 1.52067 12H10.479C10.6179 12 10.7393 11.9478 10.8432 11.8433C10.9476 11.7394 10.9998 11.6181 10.9998 11.4792V9.5H11.8332V11.4792C11.8332 11.8681 11.7048 12.1911 11.4482 12.4483C11.1909 12.705 10.8679 12.8333 10.479 12.8333H1.52067Z" fill="white"/>
</svg>
