<svg width="11" height="11" viewBox="0 0 11 11" fill="none" xmlns="http://www.w3.org/2000/svg">
<path fill-rule="evenodd" clip-rule="evenodd" d="M10.708 0.791766C11.0489 1.13261 11.0489 1.68523 10.708 2.02607L7.18648 5.54762L10.708 9.0704C11.0489 9.41125 11.0489 9.96387 10.708 10.3047C10.3672 10.6456 9.81457 10.6456 9.47372 10.3047L5.95218 6.78193L2.42939 10.3047C2.08855 10.6456 1.53593 10.6456 1.19509 10.3047C0.854242 9.96387 0.854242 9.41125 1.19509 9.0704L4.71787 5.54762L1.19509 2.02607C0.854242 1.68523 0.854242 1.13261 1.19509 0.791766C1.53593 0.450922 2.08855 0.450922 2.42939 0.791766L5.95218 4.31331L9.47372 0.791766C9.81457 0.450922 10.3672 0.450922 10.708 0.791766Z" fill="#F0142F"/>
</svg>
