<svg width="20" height="20" viewBox="0 0 20 20" fill="none" xmlns="http://www.w3.org/2000/svg">
<g clip-path="url(#clip0_3038_1924)">
<path d="M18.8303 10.0572C18.8303 4.93924 14.7024 0.785645 9.61602 0.785645C4.52966 0.785645 0.401733 4.93924 0.401733 10.0572C0.401733 14.6882 3.7705 18.5267 8.1831 19.2142V12.7308H5.82972V10.0572H8.1831V8.01385C8.1831 5.69357 9.54959 4.40452 11.6563 4.40452C12.6621 4.40452 13.706 4.59549 13.706 4.59549V6.85848H12.5483C11.4 6.85848 11.0394 7.58416 11.0394 8.30985V10.0477H13.6016L13.1936 12.7212H11.0394V19.2047C15.4615 18.5267 18.8303 14.6882 18.8303 10.0572Z" fill="#1877F2"/>
<path d="M13.2028 12.6602L13.6109 10.0045H11.0487V8.27833C11.0487 7.54802 11.4188 6.83667 12.5575 6.83667H13.7153V4.57934C13.7153 4.57934 12.6714 4.38965 11.6655 4.38965C9.55886 4.38965 8.19238 5.67007 8.19238 7.97483V10.0045H5.83899V12.6602H8.19238V19.1003C8.65736 19.1761 9.14132 19.2141 9.62529 19.2141C10.1093 19.2141 10.5932 19.1761 11.0582 19.1003V12.6602H13.2028Z" fill="white"/>
</g>
<defs>
<clipPath id="clip0_3038_1924">
<rect width="18.4286" height="18.4286" fill="white" transform="translate(0.785767 0.785645)"/>
</clipPath>
</defs>
</svg>
