<svg width="20" height="20" viewBox="0 0 20 20" fill="none" xmlns="http://www.w3.org/2000/svg">
<path fill-rule="evenodd" clip-rule="evenodd" d="M18.8457 10.2094C18.8457 9.55607 18.7871 8.92782 18.6782 8.32471H10V11.889H14.959C14.7454 13.0407 14.0962 14.0166 13.1203 14.67V16.9819H16.0982C17.8405 15.3778 18.8457 13.0156 18.8457 10.2094Z" fill="#4285F4"/>
<path fill-rule="evenodd" clip-rule="evenodd" d="M9.99997 19.2141C12.4878 19.2141 14.5736 18.389 16.0981 16.9817L13.1203 14.6697C12.2952 15.2226 11.2397 15.5493 9.99997 15.5493C7.60006 15.5493 5.56873 13.9284 4.84416 11.7505H1.76575V14.1378C3.28192 17.1492 6.39802 19.2141 9.99997 19.2141Z" fill="#34A853"/>
<path fill-rule="evenodd" clip-rule="evenodd" d="M4.84424 11.7506C4.65995 11.1977 4.55525 10.6072 4.55525 9.99987C4.55525 9.39256 4.65995 8.80201 4.84424 8.24915V5.86182H1.76583C1.14177 7.10575 0.785767 8.51302 0.785767 9.99987C0.785767 11.4867 1.14177 12.894 1.76583 14.1379L4.84424 11.7506Z" fill="#FBBC05"/>
<path fill-rule="evenodd" clip-rule="evenodd" d="M9.99997 4.45042C11.3528 4.45042 12.5674 4.91532 13.5223 5.82837L16.1652 3.18555C14.5694 1.6987 12.4836 0.785645 9.99997 0.785645C6.39802 0.785645 3.28192 2.85048 1.76575 5.86188L4.84416 8.24922C5.56873 6.07129 7.60007 4.45042 9.99997 4.45042Z" fill="#EA4335"/>
</svg>
