<svg width="23" height="24" viewBox="0 0 23 24" fill="none" xmlns="http://www.w3.org/2000/svg">
<path fill-rule="evenodd" clip-rule="evenodd" d="M9.42512 5.17114C9.36138 4.79298 9.31337 4.41911 9.28235 4.0452C9.23561 3.48433 9.26451 2.91917 9.24794 2.3583C9.24072 2.12036 9.21224 1.50001 9.22372 1.41078C9.32782 0.633216 9.95539 0.51423 10.1389 0.492985C10.2278 0.480238 11.1396 0.378307 11.3363 1.38957C11.5777 2.62603 11.655 3.87097 11.5696 5.09043C11.7689 6.12719 12.1096 7.15967 12.5596 8.09445C14.3501 11.8123 17.7621 12.1735 21.4587 12.1395C22.0272 12.131 22.4993 12.5772 22.5291 13.1423C22.5588 13.7116 22.1356 14.2045 21.5696 14.2555C19.5033 14.4552 15.8373 16.1123 14.5698 17.8374C14.3047 18.1986 14.1504 19.0697 13.9465 19.9237C13.6618 21.1092 13.3232 22.2819 12.9437 22.7748C12.8868 22.8513 12.1946 23.6331 11.9881 23.7478C11.4918 24.0198 11.0946 23.8625 10.8689 23.718C10.6433 23.5736 10.3879 23.2889 10.286 22.8173C10.1793 22.3244 10.2694 21.3131 10.2528 21.0964C10.1925 20.3103 10.0353 18.7679 9.71449 17.4423C9.54155 16.7284 9.35714 16.0698 9.05206 15.7427C7.92268 14.5317 6.11685 14.7102 4.59613 14.9099C4.4215 14.9311 4.24687 14.9566 4.07266 14.9779C3.45358 15.1606 2.79624 15.2965 2.10153 15.3772C1.05245 15.5005 0.879953 14.5359 0.870606 14.4722C0.85106 14.332 0.778395 13.6097 1.56913 13.3207C1.65539 13.291 2.2919 13.1508 2.53706 13.0955C2.87868 13.0191 3.22412 12.9596 3.57084 12.9044C7.15232 11.7911 9.09752 8.66382 9.42512 5.17114ZM10.6544 9.03352C12.0064 11.8294 14.0582 13.1805 16.4904 13.7924H16.4899C14.9713 14.5869 13.59 15.5812 12.8579 16.5798C12.58 16.9579 12.3251 17.7185 12.0952 18.5725C11.9707 17.7779 11.8024 16.9324 11.5802 16.21C11.3274 15.3857 10.987 14.7017 10.6072 14.2938C9.87381 13.5077 8.95347 13.0701 7.96388 12.8534C9.1485 11.8039 10.0468 10.4952 10.6544 9.03352Z" fill="#FF6F32"/>
</svg>
