<svg width="20" height="20" viewBox="0 0 20 20" fill="none" xmlns="http://www.w3.org/2000/svg">
<path d="M4.25813 1.50378L3.37813 2.38253L4.6875 3.69128L5.56625 2.81253L4.25813 1.50378ZM15.7425 1.50378L14.4331 2.81253L15.3125 3.69128L16.6212 2.38316L15.7425 1.50378ZM10 1.89378C9.79375 1.89628 9.585 1.90816 9.375 1.93378C9.36875 1.93378 9.3625 1.93253 9.35625 1.93378C6.82125 2.22441 4.80375 4.27253 4.45312 6.79628C4.17312 8.82753 5.01062 10.6694 6.40625 11.8557C6.97713 12.3429 7.36327 13.0114 7.5 13.7494V17.4994H8.925C9.1425 17.8725 9.53938 18.1244 10 18.1244C10.4606 18.1244 10.8575 17.8725 11.075 17.4994H12.5V14.9994H12.5587V14.2569C12.5587 13.3407 13.035 12.4169 13.8087 11.6988C14.8437 10.6625 15.625 9.19066 15.625 7.50003C15.625 4.41253 13.0838 1.86503 10 1.89378ZM10 3.14378C12.4156 3.11003 14.375 5.08753 14.375 7.50003C14.375 8.80878 13.7688 9.96128 12.9294 10.8L12.9494 10.82C12.1152 11.5892 11.5759 12.6255 11.4244 13.75H8.69062C8.55312 12.6788 8.09375 11.6419 7.22562 10.8982C6.12125 9.96066 5.46313 8.54816 5.68313 6.95316C5.95625 4.98441 7.55375 3.40128 9.51125 3.18441C9.67286 3.16188 9.83562 3.14852 9.99875 3.14441L10 3.14378ZM1.25 7.50003V8.75003H3.125V7.50003H1.25ZM16.875 7.50003V8.75003H18.75V7.50003H16.875ZM4.6875 12.5588L3.37875 13.8669L4.25813 14.7463L5.56562 13.4375L4.6875 12.5588ZM15.3125 12.5588L14.4337 13.4375L15.7419 14.7463L16.6212 13.8669L15.3125 12.5588ZM8.75 15H11.25V16.25H8.75V15Z" fill="#131316"/>
</svg>
