<svg width="16" height="16" viewBox="0 0 16 16" fill="none" xmlns="http://www.w3.org/2000/svg">
<path d="M8.00026 11.75C8.1681 11.75 8.3087 11.6932 8.42205 11.5798C8.53541 11.4663 8.59209 11.3257 8.59209 11.1579V7.80261C8.59209 7.63486 8.53532 7.49424 8.4218 7.38076C8.30826 7.26727 8.16757 7.21052 7.99974 7.21052C7.8319 7.21052 7.6913 7.26727 7.57795 7.38076C7.46459 7.49424 7.40791 7.63486 7.40791 7.80261V11.1579C7.40791 11.3257 7.46468 11.4663 7.5782 11.5798C7.69174 11.6932 7.83243 11.75 8.00026 11.75ZM8 5.85932C8.18067 5.85932 8.33211 5.79821 8.45432 5.676C8.57653 5.55379 8.63764 5.40235 8.63764 5.22168C8.63764 5.04102 8.57653 4.88958 8.45432 4.76735C8.33211 4.64514 8.18067 4.58404 8 4.58404C7.81933 4.58404 7.66789 4.64514 7.54568 4.76735C7.42346 4.88958 7.36236 5.04102 7.36236 5.22168C7.36236 5.40235 7.42346 5.55379 7.54568 5.676C7.66789 5.79821 7.81933 5.85932 8 5.85932ZM8.00132 15.5C6.964 15.5 5.98898 15.3032 5.07624 14.9095C4.16348 14.5158 3.36952 13.9815 2.69435 13.3066C2.01916 12.6318 1.48464 11.8381 1.09078 10.9258C0.696928 10.0135 0.5 9.03864 0.5 8.00132C0.5 6.964 0.696843 5.98898 1.09053 5.07624C1.48421 4.16348 2.01849 3.36952 2.69336 2.69435C3.36824 2.01916 4.16186 1.48464 5.0742 1.09079C5.98653 0.696929 6.96136 0.5 7.99868 0.5C9.036 0.5 10.011 0.696843 10.9238 1.09053C11.8365 1.48421 12.6305 2.01849 13.3057 2.69336C13.9808 3.36824 14.5154 4.16186 14.9092 5.0742C15.3031 5.98653 15.5 6.96136 15.5 7.99868C15.5 9.036 15.3032 10.011 14.9095 10.9238C14.5158 11.8365 13.9815 12.6305 13.3066 13.3057C12.6318 13.9808 11.8381 14.5154 10.9258 14.9092C10.0135 15.3031 9.03864 15.5 8.00132 15.5Z" fill="#332600"/>
</svg>
