<svg width="15" height="14" viewBox="0 0 15 14" fill="none" xmlns="http://www.w3.org/2000/svg">
<path fill-rule="evenodd" clip-rule="evenodd" d="M7.70614 1.80393L7.50002 2.10606L7.2472 1.73525L7.18518 1.67921C5.63794 0.281047 3.04431 0.378994 1.55934 1.8743C0.0358014 3.40845 0.0358014 5.88632 1.55934 7.42047L7.50002 13.3749L13.4407 7.42047C14.9642 5.88632 14.9642 3.40845 13.4407 1.8743C11.8819 0.304597 9.30654 0.175692 7.7875 1.70531L7.70614 1.80393ZM12.5245 2.94156C13.4137 3.9477 13.3795 5.49846 12.4219 6.4627L7.56944 11.3487L7.42848 11.3466L2.57813 6.4627C1.58509 5.46275 1.58509 3.83202 2.57813 2.83207L2.68317 2.73258C3.61753 1.90008 5.15998 1.84167 6.11374 2.59826L6.1641 2.64086L7.50002 4.60522L8.84727 2.62363L8.80629 2.66308C9.74424 1.71859 11.3984 1.80139 12.4219 2.83207L12.5245 2.94156Z" fill="#56616B"/>
</svg>
