<svg width="16" height="15" viewBox="0 0 16 15" fill="none" xmlns="http://www.w3.org/2000/svg">
<path d="M6.33332 8.91667H12.1667C12.3194 8.91667 12.4272 8.85056 12.49 8.71833C12.5522 8.58667 12.5347 8.45833 12.4375 8.33333L10.8333 6.22917C10.7639 6.13194 10.6736 6.08333 10.5625 6.08333C10.4514 6.08333 10.3611 6.13194 10.2917 6.22917L8.52082 8.4375L7.49999 7.1875C7.41666 7.10417 7.31943 7.06611 7.20832 7.07333C7.09721 7.08 7.00693 7.125 6.93749 7.20833L6.06249 8.33333C5.97916 8.45833 5.9686 8.58667 6.03082 8.71833C6.0936 8.85056 6.19443 8.91667 6.33332 8.91667ZM4.77082 11.6667C4.38193 11.6667 4.05916 11.5383 3.80249 11.2817C3.54527 11.0244 3.41666 10.7014 3.41666 10.3125V1.35417C3.41666 0.965278 3.54527 0.642222 3.80249 0.385C4.05916 0.128333 4.38193 0 4.77082 0H13.7292C14.118 0 14.4411 0.128333 14.6983 0.385C14.955 0.642222 15.0833 0.965278 15.0833 1.35417V10.3125C15.0833 10.7014 14.955 11.0244 14.6983 11.2817C14.4411 11.5383 14.118 11.6667 13.7292 11.6667H4.77082ZM4.77082 10.8333H13.7292C13.8819 10.8333 14.0069 10.7847 14.1042 10.6875C14.2014 10.5903 14.25 10.4653 14.25 10.3125V1.35417C14.25 1.20139 14.2014 1.07639 14.1042 0.979167C14.0069 0.881945 13.8819 0.833333 13.7292 0.833333H4.77082C4.61805 0.833333 4.49305 0.881945 4.39582 0.979167C4.2986 1.07639 4.24999 1.20139 4.24999 1.35417V10.3125C4.24999 10.4653 4.2986 10.5903 4.39582 10.6875C4.49305 10.7847 4.61805 10.8333 4.77082 10.8333ZM2.27082 14.1667C1.88193 14.1667 1.55888 14.0383 1.30166 13.7817C1.04499 13.5244 0.916656 13.2014 0.916656 12.8125V3.4375C0.916656 3.3125 0.95499 3.21167 1.03166 3.135C1.10777 3.05889 1.20832 3.02083 1.33332 3.02083C1.45832 3.02083 1.55916 3.05889 1.63582 3.135C1.71193 3.21167 1.74999 3.3125 1.74999 3.4375V12.8125C1.74999 12.9653 1.7986 13.0903 1.89582 13.1875C1.99305 13.2847 2.11805 13.3333 2.27082 13.3333H11.6458C11.7708 13.3333 11.8717 13.3714 11.9483 13.4475C12.0244 13.5242 12.0625 13.625 12.0625 13.75C12.0625 13.875 12.0244 13.9758 11.9483 14.0525C11.8717 14.1286 11.7708 14.1667 11.6458 14.1667H2.27082Z" fill="#131316"/>
</svg>
