<svg width="32" height="32" viewBox="0 0 32 32" fill="none" xmlns="http://www.w3.org/2000/svg">
<mask id="mask0_3157_6667" style="mask-type:alpha" maskUnits="userSpaceOnUse" x="0" y="0" width="32" height="32">
<rect width="32" height="32" fill="#D9D9D9"/>
</mask>
<g mask="url(#mask0_3157_6667)">
<path d="M13.3333 18.2667H22.6667C22.9111 18.2667 23.0836 18.1609 23.184 17.9493C23.2836 17.7387 23.2556 17.5333 23.1 17.3333L20.5333 13.9667C20.4222 13.8111 20.2778 13.7333 20.1 13.7333C19.9222 13.7333 19.7778 13.8111 19.6667 13.9667L16.8333 17.5L15.2 15.5C15.0667 15.3667 14.9111 15.3058 14.7333 15.3173C14.5556 15.328 14.4111 15.4 14.3 15.5333L12.9 17.3333C12.7667 17.5333 12.7498 17.7387 12.8493 17.9493C12.9498 18.1609 13.1111 18.2667 13.3333 18.2667ZM10.8333 22.6667C10.2111 22.6667 9.69466 22.4613 9.284 22.0507C8.87244 21.6391 8.66666 21.1222 8.66666 20.5V6.16667C8.66666 5.54444 8.87244 5.02756 9.284 4.616C9.69466 4.20533 10.2111 4 10.8333 4H25.1667C25.7889 4 26.3058 4.20533 26.7173 4.616C27.128 5.02756 27.3333 5.54444 27.3333 6.16667V20.5C27.3333 21.1222 27.128 21.6391 26.7173 22.0507C26.3058 22.4613 25.7889 22.6667 25.1667 22.6667H10.8333ZM10.8333 21.3333H25.1667C25.4111 21.3333 25.6111 21.2556 25.7667 21.1C25.9222 20.9444 26 20.7444 26 20.5V6.16667C26 5.92222 25.9222 5.72222 25.7667 5.56667C25.6111 5.41111 25.4111 5.33333 25.1667 5.33333H10.8333C10.5889 5.33333 10.3889 5.41111 10.2333 5.56667C10.0778 5.72222 10 5.92222 10 6.16667V20.5C10 20.7444 10.0778 20.9444 10.2333 21.1C10.3889 21.2556 10.5889 21.3333 10.8333 21.3333ZM6.83333 26.6667C6.21111 26.6667 5.69422 26.4613 5.28266 26.0507C4.872 25.6391 4.66666 25.1222 4.66666 24.5V9.5C4.66666 9.3 4.728 9.13867 4.85066 9.016C4.97244 8.89422 5.13333 8.83333 5.33333 8.83333C5.53333 8.83333 5.69466 8.89422 5.81733 9.016C5.93911 9.13867 6 9.3 6 9.5V24.5C6 24.7444 6.07778 24.9444 6.23333 25.1C6.38889 25.2556 6.58889 25.3333 6.83333 25.3333H21.8333C22.0333 25.3333 22.1947 25.3942 22.3173 25.516C22.4391 25.6387 22.5 25.8 22.5 26C22.5 26.2 22.4391 26.3613 22.3173 26.484C22.1947 26.6058 22.0333 26.6667 21.8333 26.6667H6.83333Z" fill="#131316"/>
</g>
</svg>
