<svg width="18" height="17" viewBox="0 0 18 17" fill="none" xmlns="http://www.w3.org/2000/svg">
<path d="M5.65 9.875H6.425V7.875H7.65C7.86667 7.875 8.05 7.804 8.2 7.662C8.35 7.52067 8.425 7.34167 8.425 7.125V5.875C8.425 5.65833 8.35 5.479 8.2 5.337C8.05 5.19567 7.86667 5.125 7.65 5.125H5.65V9.875ZM6.425 7.125V5.875H7.65V7.125H6.425ZM9.45 9.875H11.375C11.6083 9.875 11.796 9.804 11.938 9.662C12.0793 9.52067 12.15 9.34167 12.15 9.125V5.875C12.15 5.65833 12.0793 5.479 11.938 5.337C11.796 5.19567 11.6083 5.125 11.375 5.125H9.45V9.875ZM10.225 9.125V5.875H11.375V9.125H10.225ZM13.375 9.875H14.15V7.875H15.55V7.125H14.15V5.875H15.55V5.125H13.375V9.875ZM5.125 14C4.65833 14 4.271 13.846 3.963 13.538C3.65433 13.2293 3.5 12.8417 3.5 12.375V1.625C3.5 1.15833 3.65433 0.770667 3.963 0.462C4.271 0.154 4.65833 0 5.125 0H15.875C16.3417 0 16.7293 0.154 17.038 0.462C17.346 0.770667 17.5 1.15833 17.5 1.625V12.375C17.5 12.8417 17.346 13.2293 17.038 13.538C16.7293 13.846 16.3417 14 15.875 14H5.125ZM5.125 13H15.875C16.0583 13 16.2083 12.9417 16.325 12.825C16.4417 12.7083 16.5 12.5583 16.5 12.375V1.625C16.5 1.44167 16.4417 1.29167 16.325 1.175C16.2083 1.05833 16.0583 1 15.875 1H5.125C4.94167 1 4.79167 1.05833 4.675 1.175C4.55833 1.29167 4.5 1.44167 4.5 1.625V12.375C4.5 12.5583 4.55833 12.7083 4.675 12.825C4.79167 12.9417 4.94167 13 5.125 13ZM2.125 17C1.65833 17 1.27067 16.846 0.962 16.538C0.654 16.2293 0.5 15.8417 0.5 15.375V3.625H1.5V15.375C1.5 15.5583 1.55833 15.7083 1.675 15.825C1.79167 15.9417 1.94167 16 2.125 16H13.875V17H2.125Z" fill="#131316"/>
</svg>
