<svg width="35" height="35" viewBox="0 0 35 35" fill="none" xmlns="http://www.w3.org/2000/svg">
<mask id="mask0_1064_58595" style="mask-type:alpha" maskUnits="userSpaceOnUse" x="0" y="0" width="35" height="35">
<rect width="35" height="35" fill="#D9D9D9"/>
</mask>
<g mask="url(#mask0_1064_58595)">
<path d="M9.4792 25.4785C8.09379 24.2146 7.01827 22.7661 6.25264 21.1329C5.48701 19.4998 5.1042 17.8002 5.1042 16.0341C5.1042 12.5936 6.30936 9.66926 8.71967 7.26095C11.13 4.85261 14.0567 3.64844 17.5 3.64844C20.3325 3.64844 22.8654 4.49493 25.0987 6.18791C27.332 7.88089 28.7824 10.0773 29.4499 12.777L31.1538 19.5066C31.263 19.9224 31.1858 20.3 30.9222 20.6393C30.6586 20.9787 30.3071 21.1484 29.8677 21.1484H26.9791V25.8038C26.9791 26.5288 26.721 27.1494 26.2047 27.6656C25.6885 28.1819 25.0679 28.44 24.3429 28.44H21.1458V30.2629C21.1458 30.5728 21.0409 30.8326 20.8312 31.0422C20.6215 31.2519 20.3616 31.3567 20.0516 31.3567C19.7415 31.3567 19.4818 31.2519 19.2724 31.0422C19.063 30.8326 18.9583 30.5728 18.9583 30.2629V27.5776C18.9583 27.1972 19.0847 26.8812 19.3373 26.6298C19.5899 26.3783 19.903 26.2526 20.2765 26.2526H24.3429C24.4738 26.2526 24.5813 26.2105 24.6654 26.1264C24.7496 26.0422 24.7917 25.9347 24.7917 25.8038V20.279C24.7917 19.9055 24.918 19.5925 25.1706 19.3399C25.4232 19.0872 25.7363 18.9609 26.1098 18.9609H28.7292L27.3438 13.3099C26.7847 11.0887 25.5891 9.28775 23.7568 7.90703C21.9245 6.52628 19.8389 5.8359 17.5 5.8359C14.6806 5.8359 12.2743 6.82164 10.2812 8.79311C8.28819 10.7646 7.29167 13.162 7.29167 15.9854C7.29167 17.4413 7.58941 18.8244 8.1849 20.1348C8.78038 21.4451 9.625 22.6098 10.7188 23.629L11.6667 24.5026V30.2629C11.6667 30.5728 11.5618 30.8326 11.3521 31.0422C11.1424 31.2519 10.8825 31.3567 10.5724 31.3567C10.2624 31.3567 10.0027 31.2519 9.79333 31.0422C9.58391 30.8326 9.4792 30.5728 9.4792 30.2629V25.4785ZM17.3593 23.1957C17.7167 23.1957 18.0165 23.0748 18.2586 22.833C18.5007 22.5912 18.6218 22.2916 18.6218 21.9342C18.6218 21.5767 18.5009 21.2769 18.2591 21.0348C18.0173 20.7927 17.7177 20.6717 17.3603 20.6717C17.0028 20.6717 16.703 20.7926 16.4609 21.0344C16.2188 21.2761 16.0978 21.5757 16.0978 21.9332C16.0978 22.2906 16.2187 22.5904 16.4605 22.8325C16.7022 23.0746 17.0018 23.1957 17.3593 23.1957ZM17.4678 11.0551C18.0688 11.0551 18.5666 11.2218 18.9611 11.5552C19.3556 11.8886 19.5529 12.3193 19.5529 12.8472C19.5529 13.2327 19.4496 13.6002 19.243 13.9496C19.0364 14.299 18.6199 14.7991 17.9936 15.4497C17.5599 15.9078 17.235 16.3322 17.019 16.7229C16.8031 17.1137 16.6587 17.5381 16.5857 17.9962C16.5465 18.2224 16.6088 18.4239 16.7728 18.6005C16.9367 18.7772 17.1441 18.8656 17.3949 18.8656C17.607 18.8656 17.8029 18.7931 17.9823 18.6482C18.1618 18.5033 18.2834 18.3056 18.3469 18.0551C18.4198 17.7541 18.5446 17.4545 18.7213 17.1563C18.898 16.858 19.1612 16.5173 19.5108 16.134C20.2418 15.33 20.7289 14.7117 20.9719 14.2789C21.215 13.846 21.3365 13.3688 21.3365 12.8472C21.3365 11.8731 20.9696 11.0546 20.2358 10.3918C19.5019 9.72906 18.5797 9.39766 17.4692 9.39766C16.7384 9.39766 16.0477 9.57201 15.3969 9.92069C14.7461 10.2694 14.2234 10.7531 13.8289 11.372C13.7112 11.5683 13.7027 11.7721 13.8037 11.9834C13.9047 12.1946 14.0608 12.347 14.272 12.4405C14.4833 12.534 14.6908 12.5498 14.8946 12.4882C15.0984 12.4265 15.2788 12.29 15.4359 12.0787C15.6976 11.7497 16.0061 11.4968 16.3613 11.3201C16.7164 11.1434 17.0853 11.0551 17.4678 11.0551Z" fill="#131316"/>
</g>
</svg>
