<svg width="19" height="20" viewBox="0 0 19 20" fill="none" xmlns="http://www.w3.org/2000/svg">
<path d="M3.5 15.4692C2.55 14.6025 1.8125 13.6093 1.2875 12.4894C0.7625 11.3695 0.5 10.2041 0.5 8.99303C0.5 6.63386 1.32639 4.62857 2.97918 2.97715C4.63194 1.32572 6.63888 0.5 8.99998 0.5C10.9423 0.5 12.6791 1.08045 14.2105 2.24135C15.7419 3.40225 16.7365 4.90833 17.1942 6.7596L18.3626 11.3742C18.4375 11.6593 18.3845 11.9182 18.2038 12.1509C18.023 12.3836 17.782 12.5 17.4807 12.5H15.5V15.6923C15.5 16.1894 15.3229 16.6149 14.9689 16.9689C14.6149 17.3229 14.1894 17.5 13.6922 17.5H11.5V18.75C11.5 18.9625 11.428 19.1406 11.2842 19.2843C11.1404 19.4281 10.9622 19.5 10.7496 19.5C10.537 19.5 10.3589 19.4281 10.2154 19.2843C10.0718 19.1406 9.99998 18.9625 9.99998 18.75V16.9086C9.99998 16.6477 10.0866 16.4311 10.2598 16.2586C10.4331 16.0862 10.6477 16 10.9038 16H13.6922C13.782 16 13.8557 15.9711 13.9134 15.9134C13.9711 15.8557 14 15.782 14 15.6923V11.9038C14 11.6477 14.0866 11.4331 14.2598 11.2598C14.4331 11.0866 14.6477 11 14.9038 11H16.7L15.75 7.12498C15.3666 5.60189 14.5468 4.36696 13.2904 3.42018C12.034 2.47338 10.6038 1.99998 8.99998 1.99998C7.06664 1.99998 5.41664 2.67591 4.04998 4.02778C2.68331 5.37964 1.99997 7.02358 1.99997 8.9596C1.99997 9.95795 2.20414 10.9064 2.61247 11.8049C3.02081 12.7034 3.59998 13.5021 4.34998 14.201L4.99998 14.8V18.75C4.99998 18.9625 4.92807 19.1406 4.78425 19.2843C4.64045 19.4281 4.46225 19.5 4.24965 19.5C4.03707 19.5 3.85898 19.4281 3.7154 19.2843C3.5718 19.1406 3.5 18.9625 3.5 18.75V15.4692ZM8.90348 13.9038C9.14858 13.9038 9.35413 13.8209 9.52015 13.6551C9.68618 13.4893 9.7692 13.2839 9.7692 13.0388C9.7692 12.7937 9.6863 12.5881 9.5205 12.4221C9.3547 12.2561 9.14925 12.1731 8.90415 12.1731C8.65905 12.1731 8.45349 12.256 8.28748 12.4218C8.12146 12.5876 8.03845 12.793 8.03845 13.0381C8.03845 13.2832 8.12135 13.4888 8.28715 13.6548C8.45293 13.8208 8.65838 13.9038 8.90348 13.9038ZM8.97788 5.57883C9.39004 5.57883 9.73139 5.69314 10.0019 5.92178C10.2724 6.15039 10.4077 6.4457 10.4077 6.8077C10.4077 7.07208 10.3368 7.32408 10.1952 7.56368C10.0535 7.80328 9.76793 8.14615 9.33845 8.5923C9.04102 8.9064 8.81826 9.19743 8.67018 9.46538C8.52209 9.73333 8.42305 10.0244 8.37305 10.3385C8.34613 10.4936 8.38889 10.6317 8.50133 10.7529C8.61374 10.874 8.75593 10.9346 8.92788 10.9346C9.07338 10.9346 9.20766 10.8849 9.33073 10.7856C9.45381 10.6862 9.53714 10.5506 9.58073 10.3789C9.63073 10.1724 9.7163 9.96698 9.83745 9.7625C9.95862 9.558 10.1391 9.32434 10.3788 9.06153C10.8801 8.51024 11.2141 8.08621 11.3807 7.78943C11.5474 7.49263 11.6307 7.16538 11.6307 6.8077C11.6307 6.13975 11.3791 5.57853 10.8759 5.12405C10.3727 4.66957 9.74036 4.44233 8.97883 4.44233C8.47776 4.44233 8.00409 4.56188 7.55783 4.80098C7.11158 5.04008 6.75319 5.3718 6.48268 5.79615C6.40191 5.93077 6.39614 6.07051 6.46538 6.21538C6.53459 6.36024 6.64163 6.46473 6.7865 6.52883C6.93138 6.59293 7.07369 6.60383 7.21343 6.56153C7.35316 6.51923 7.47688 6.42563 7.58458 6.28075C7.76406 6.05512 7.97558 5.88173 8.21913 5.76058C8.46268 5.63941 8.71559 5.57883 8.97788 5.57883Z" fill="#131316"/>
</svg>
