<svg width="24" height="24" viewBox="0 0 24 24" fill="none" xmlns="http://www.w3.org/2000/svg">
<g clip-path="url(#clip0_1020_13847)">
<path d="M4.59401 4.9839C4.77507 4.96286 4.95843 4.99171 5.12428 5.06732C5.29013 5.14293 5.43215 5.26243 5.53501 5.4129C7.01101 7.5719 8.78301 8.4699 10.75 8.6739C10.846 7.8329 11.073 7.0019 11.5 6.2699C12.126 5.1959 13.144 4.4059 14.598 4.1139C16.608 3.7099 18.138 4.4379 19.025 5.3289L20.817 4.9939C21.0045 4.95877 21.1982 4.97801 21.3751 5.04935C21.5521 5.1207 21.7049 5.24117 21.8156 5.39655C21.9263 5.55193 21.9903 5.73574 21.9999 5.92628C22.0095 6.11682 21.9645 6.30614 21.87 6.4719L20.15 9.4939C20.307 13.8549 19.095 16.8989 16.511 18.9959C15.141 20.1079 13.179 20.7389 11.026 20.9339C8.85601 21.1299 6.40301 20.8929 3.96501 20.1809C3.75671 20.1201 3.57381 19.9933 3.44394 19.8194C3.31406 19.6456 3.24425 19.4343 3.24504 19.2173C3.24583 19.0003 3.31718 18.7894 3.44832 18.6166C3.57946 18.4437 3.76327 18.3181 3.97201 18.2589C5.19801 17.9099 6.13201 17.6089 6.97501 17.0819C5.77601 16.4459 4.89301 15.6139 4.26801 14.6659C3.40001 13.3479 3.07801 11.8779 3.01401 10.5529C2.95001 9.2279 3.14101 7.9999 3.34301 7.1149C3.45801 6.6099 3.59201 6.1039 3.77701 5.6199C3.84227 5.44929 3.95301 5.29982 4.09722 5.1877C4.24142 5.07558 4.41258 5.0051 4.59401 4.9839Z" fill="white"/>
</g>
<defs>
<clipPath id="clip0_1020_13847">
<rect width="24" height="24" fill="white"/>
</clipPath>
</defs>
</svg>
